Coordinates
version=1
nRows=5
nColumns=40
inDegrees=yes

Units are S.I. units (second, meters, Newtons, ...)
Angles are in degrees.

endheader
time	pelvis_tilt	pelvis_list	pelvis_rotation	pelvis_tx	pelvis_ty	pelvis_tz	hip_flexion_r	hip_adduction_r	hip_rotation_r	knee_angle_r	knee_angle_r_beta	ankle_angle_r	subtalar_angle_r	mtp_angle_r	hip_flexion_l	hip_adduction_l	hip_rotation_l	knee_angle_l	knee_angle_l_beta	ankle_angle_l	subtalar_angle_l	mtp_angle_l	lumbar_extension	lumbar_bending	lumbar_rotation	arm_flex_r	arm_add_r	arm_rot_r	elbow_flex_r	pro_sup_r	wrist_flex_r	wrist_dev_r	arm_flex_l	arm_add_l	arm_rot_l	elbow_flex_l	pro_sup_l	wrist_flex_l	wrist_dev_l
     28.22500000	     -4.81721572	     -4.12573629	    -11.37581039	      1.06692853	      0.92992597	      0.44702139	     23.18096743	     -1.24016837	     -5.38944931	     17.71708423	     17.71708423	      6.55762501	      7.64889548	      2.15540148	      9.09484667	     -4.23525821	    -12.74473846	     20.17544184	     20.17544184	     17.25672822	    -15.55051175	      2.12177900	     -9.73007023	      7.90739277	      1.43292931	    -21.44962153	    -10.25163785	    -12.08510960	     29.34254822	     46.73648962	      0.00000000	      0.00000000	     32.04732818	    -23.18332757	      1.44093263	     70.34206876	     47.25929356	      0.00000000	      0.00000000
     28.24607143	     -4.89613013	     -3.72544778	    -12.00894303	      1.06736754	      0.92926567	      0.45087285	     23.08086344	     -1.29775072	     -5.93527306	     16.70970743	     16.70970743	      6.59173192	      9.62044261	      3.57987521	      8.43235084	     -4.01229383	    -13.56895044	     19.48049575	     19.48049575	     16.87972022	    -15.37246506	      0.63185684	     -9.69697474	      7.66897848	      1.16988523	    -22.20505459	     -9.92598418	    -12.44473577	     31.34144406	     46.64129888	      0.00000000	      0.00000000	     32.31522945	    -23.89733104	     -1.37129951	     74.33427470	     47.53811406	      0.00000000	      0.00000000
     28.26714286	     -4.92895202	     -3.46429257	    -12.58337903	      1.06815087	      0.92873917	      0.45504977	     22.78029362	     -1.09789351	     -5.80406912	     15.84806234	     15.84806234	      6.13830656	     10.22415972	      3.84366229	      7.72161515	     -3.90288502	    -14.17048145	     18.89249367	     18.89249367	     16.91980894	    -15.25304755	      0.34355523	     -9.59808724	      7.56114636	      1.45169958	    -22.45085434	     -9.55583100	    -12.26572045	     31.57368779	     46.60625064	      0.00000000	      0.00000000	     33.60933602	    -24.28627063	     -2.45609791	     75.98922165	     47.65377081	      0.00000000	      0.00000000
     28.28821429	     -4.94597724	     -3.12794169	    -13.10350218	      1.06918558	      0.92797675	      0.45926068	     22.72910736	     -1.05310163	     -5.64554368	     15.77889298	     15.77889298	      5.69948486	     10.45204793	      3.37975931	      7.06773337	     -3.72053364	    -14.78298513	     18.43033928	     18.43033928	     17.00126836	    -15.09751161	     -0.10877717	     -9.55992379	      7.44400107	      1.66707399	    -22.51747283	     -9.23070286	    -12.04096555	     32.05646229	     46.55749646	      0.00000000	      0.00000000	     34.53018127	    -24.53008734	     -3.94269940	     78.13101040	     47.80147970	      0.00000000	      0.00000000
     28.30928571	     -5.02255735	     -2.88677474	    -13.53250927	      1.07051314	      0.92707753	      0.46371510	     22.67652564	     -0.86777722	     -5.16678673	     15.89025682	     15.89025682	      4.92760066	      9.97318460	      1.41910578	      6.54308332	     -3.67905353	    -15.24530168	     18.14242483	     18.14242483	     16.97537783	    -15.08869999	     -0.82172341	     -9.44326731	      7.42258011	      1.19561177	    -22.19681808	     -9.19262271	    -11.40599518	     32.89751554	     46.45751216	      0.00000000	      0.00000000	     34.63859558	    -25.08020730	     -6.54200647	     80.94123931	     48.03001359	      0.00000000	      0.00000000
